PathFileType	4	(X/Y/Z)	SUBJ94_0_static_RCNL2025.trc
DataRate	CameraRate	NumFrames	NumMarkers	Units	OrigDataRate	OrigDataStartFrame	OrigNumFrames
100	100	12	25	mm	100	199	227
Frame#	Time	R_Shoulder			L_Shoulder			C7			J_Notch			R_Elbow			L_Elbow			R_Wrist			L_Wrist			R_Asis			L_Asis			Sacral			Thoracic			Sternum			R_Thigh_Lateral			R_Knee_Lateral			R_Shank_Lateral			R_Ankle_Lateral			R_Heel			R_Toe			L_Thigh_Lateral			L_Knee_Lateral			L_Shank_Lateral			L_Ankle_Lateral			L_Heel			L_Toe		
		X1	Y1	Z1	X2	Y2	Z2	X3	Y3	Z3	X4	Y4	Z4	X5	Y5	Z5	X6	Y6	Z6	X7	Y7	Z7	X8	Y8	Z8	X9	Y9	Z9	X10	Y10	Z10	X11	Y11	Z11	X12	Y12	Z12	X13	Y13	Z13	X14	Y14	Z14	X15	Y15	Z15	X16	Y16	Z16	X17	Y17	Z17	X18	Y18	Z18	X19	Y19	Z19	X20	Y20	Z20	X21	Y21	Z21	X22	Y22	Z22	X23	Y23	Z23	X24	Y24	Z24	X25	Y25	Z25
199	1.98000000	-301.836243	1271.461548	-55.180153	-286.340393	1284.782227	-431.556244	-347.233978	1352.055420	-242.798157	-232.079788	1264.355347	-246.329956	-366.642090	1020.021545	63.972275	-349.388153	1031.786865	-549.416931	-339.900650	807.204895	131.078743	-305.247650	805.724274	-587.076630	-220.470551	883.254639	-117.431931	-203.590225	874.268799	-343.879852	-402.923096	938.743835	-253.488495	-408.366821	1148.676514	-253.909744	-190.725845	1071.996094	-238.857361	-308.109192	537.555420	-58.274887	-326.247437	444.248596	-116.085640	-348.009674	260.792206	-75.159836	-361.065002	55.680378	-158.148224	-404.384735	52.355057	-206.087112	-226.445984	37.896481	-188.144745	-292.076202	536.023743	-428.686005	-318.710968	439.483185	-373.608795	-333.948120	259.532257	-436.481018	-358.597992	56.724178	-332.007721	-399.427277	46.631378	-283.549164	-233.227112	42.638554	-300.224243
200	1.99000000	-301.796021	1271.522217	-55.235207	-286.342896	1284.751465	-431.505066	-347.170593	1352.026123	-242.743713	-231.960510	1264.357422	-246.293259	-366.639099	1020.063965	64.085625	-349.537292	1031.649048	-549.311340	-339.782959	807.224945	131.229408	-305.570587	805.663452	-586.908936	-220.489243	883.272278	-117.432625	-203.686157	874.185608	-343.753235	-402.923340	938.707397	-253.490540	-408.371277	1148.642334	-253.880692	-190.724136	1071.990112	-238.830032	-308.182434	537.487732	-58.249641	-326.321777	444.270935	-116.038536	-348.072906	260.796417	-75.205597	-361.095032	55.708176	-158.117371	-404.449249	52.391586	-206.135986	-226.407578	37.927303	-188.164200	-292.006470	535.962585	-428.611908	-318.632294	439.438843	-373.564392	-333.935852	259.540070	-436.504486	-358.682190	56.764061	-331.964569	-399.402283	46.592903	-283.576752	-233.237778	42.634708	-300.221710
201	2.00000000	-301.799194	1271.525757	-55.213406	-286.281189	1284.620605	-431.535645	-347.048859	1352.051025	-242.843735	-231.961777	1264.294434	-246.318344	-366.611145	1020.179260	64.212654	-349.637146	1031.585815	-549.213928	-339.740921	807.368958	131.447990	-305.780258	805.537201	-586.734283	-220.548553	883.273193	-117.365524	-203.708237	874.220947	-343.761871	-402.957367	938.671631	-253.575867	-408.370270	1148.640259	-253.908142	-190.820465	1071.953613	-238.730301	-308.255005	537.465393	-58.325165	-326.421570	444.282013	-116.075668	-348.081818	260.778259	-75.202225	-361.110260	55.686573	-158.113892	-404.392944	52.361984	-206.088730	-226.454910	37.918255	-188.143936	-292.051636	535.955811	-428.553802	-318.639679	439.410461	-373.530823	-333.907562	259.518646	-436.566345	-358.614746	56.757046	-332.046631	-399.361053	46.610611	-283.626831	-233.163986	42.613594	-300.271301
202	2.01000000	-301.720459	1271.514771	-55.203396	-286.298828	1284.600464	-431.516510	-347.083130	1352.005493	-242.790344	-231.973969	1264.287476	-246.320160	-366.614014	1020.206970	64.328400	-349.795197	1031.564453	-549.197510	-339.738602	807.460541	131.556534	-306.074921	805.421143	-586.596497	-220.557022	883.268066	-117.329590	-203.646545	874.179382	-343.782471	-402.970581	938.690979	-253.575836	-408.370178	1148.661499	-253.879822	-190.772354	1071.928101	-238.782562	-308.279999	537.486145	-58.300938	-326.424286	444.271881	-116.073441	-348.107239	260.791901	-75.150459	-361.097839	55.673737	-158.124542	-404.460175	52.309280	-206.114929	-226.459366	37.912815	-188.122742	-292.178680	535.939819	-428.570862	-318.642120	439.426453	-373.572174	-333.925903	259.519165	-436.529083	-358.681854	56.797726	-331.992401	-399.382721	46.564835	-283.604004	-233.234634	42.605019	-300.220123
203	2.02000000	-301.690399	1271.541016	-55.164001	-286.285278	1284.509888	-431.536072	-347.088562	1352.016113	-242.785706	-231.976868	1264.270142	-246.317764	-366.565857	1020.294373	64.548485	-349.892944	1031.449707	-549.063843	-339.599106	807.410797	131.649052	-306.364716	805.281189	-586.328430	-220.557236	883.269531	-117.356461	-203.592163	874.179932	-343.681458	-402.970367	938.709351	-253.601959	-408.327911	1148.660767	-253.795776	-190.824600	1071.930664	-238.722702	-308.393311	537.470764	-58.224720	-326.496674	444.247467	-116.044899	-348.137756	260.817993	-75.161217	-361.106018	55.704266	-158.112045	-404.390381	52.356079	-206.088058	-226.454178	37.927952	-188.142166	-292.176453	535.968628	-428.639343	-318.720734	439.461517	-373.600067	-333.921021	259.508057	-436.531311	-358.664642	56.788574	-332.062897	-399.377563	46.525627	-283.608246	-233.243179	42.624851	-300.256256
204	2.03000000	-301.697479	1271.559570	-55.149902	-286.344574	1284.479248	-431.561127	-347.087860	1352.016968	-242.786804	-231.975739	1264.287842	-246.318283	-366.523254	1020.369751	64.677711	-349.941864	1031.405762	-548.991272	-339.593994	807.646423	131.910236	-306.573822	805.185974	-586.174835	-220.565048	883.264587	-117.307045	-203.591599	874.161072	-343.668701	-402.967102	938.716370	-253.618332	-408.322998	1148.675171	-253.794617	-190.839355	1071.927124	-238.718521	-308.522461	537.507935	-58.232922	-326.577545	444.272980	-115.973846	-348.179932	260.767609	-75.149658	-361.121033	55.642296	-158.136398	-404.396240	52.303753	-206.056519	-226.477493	37.932541	-188.159882	-292.184814	535.974609	-428.625732	-318.794128	439.468964	-373.600372	-333.965759	259.518890	-436.622711	-358.610229	56.708263	-331.990356	-399.379852	46.577442	-283.603271	-233.235916	42.640202	-300.230438
205	2.04000000	-301.636017	1271.575928	-55.110928	-286.352478	1284.430786	-431.557190	-347.086639	1352.048340	-242.785721	-231.974197	1264.290161	-246.318970	-366.550537	1020.442505	64.834541	-350.029602	1031.355347	-548.883545	-339.531616	807.768066	132.106400	-306.794800	805.079376	-585.979248	-220.574356	883.192810	-117.291817	-203.617554	874.121033	-343.636505	-402.965424	938.752502	-253.617813	-408.323883	1148.675781	-253.796448	-190.767624	1071.931030	-238.783463	-308.515717	537.508606	-58.249039	-326.597473	444.292511	-115.968048	-348.203766	260.701996	-75.160057	-361.111908	55.662212	-158.121506	-404.388794	52.321442	-206.057144	-226.442398	37.928444	-188.113968	-292.163757	536.008179	-428.573456	-318.782806	439.477844	-373.581055	-333.990692	259.576050	-436.529633	-358.571167	56.784969	-332.068695	-399.390686	46.601421	-283.588593	-233.221542	42.646713	-300.201385
206	2.05000000	-301.472321	1271.622437	-55.101418	-286.336395	1284.406372	-431.557159	-347.084839	1352.060181	-242.787231	-231.974228	1264.289673	-246.318970	-366.318695	1020.558594	64.831444	-350.123383	1031.327026	-548.789307	-339.489670	807.854675	132.231594	-307.024460	804.975494	-585.883667	-220.578461	883.186279	-117.291718	-203.424927	873.985474	-343.681030	-402.956116	938.838379	-253.621384	-408.241455	1148.676514	-253.736694	-190.747635	1071.934814	-238.798889	-308.577728	537.547668	-58.197872	-326.594666	444.319336	-115.960815	-348.287262	260.820618	-75.157974	-361.124451	55.692482	-158.090591	-404.406158	52.345039	-206.058029	-226.404190	37.936134	-188.158554	-292.143219	536.007812	-428.549713	-318.772278	439.507935	-373.587006	-333.991608	259.595306	-436.581024	-358.642578	56.796284	-332.056763	-399.374817	46.617538	-283.612701	-233.221741	42.647129	-300.191620
207	2.06000000	-301.447632	1271.650513	-55.106968	-286.333923	1284.392700	-431.546204	-347.025055	1352.072876	-242.698441	-231.974457	1264.289429	-246.318878	-366.289612	1020.604858	64.951965	-350.200714	1031.255493	-548.724060	-339.384888	807.939728	132.372250	-307.192108	804.877777	-585.723358	-220.591141	883.183960	-117.264824	-203.476364	874.104553	-343.605499	-402.833832	938.847412	-253.541275	-408.256042	1148.684448	-253.708633	-190.636993	1071.937744	-238.732101	-308.638824	537.530640	-58.150307	-326.662262	444.273071	-115.896561	-348.298065	260.822693	-75.061226	-361.145050	55.710220	-158.074173	-404.419952	52.360992	-206.034958	-226.428162	37.943897	-188.095184	-292.232361	536.023254	-428.534149	-318.778534	439.489838	-373.544769	-334.037994	259.594330	-436.593384	-358.635864	56.785915	-332.017212	-399.366455	46.568466	-283.629211	-233.236191	42.633610	-300.160950
208	2.07000000	-301.466797	1271.661743	-55.087769	-286.439331	1284.310913	-431.566864	-347.022369	1352.072876	-242.694763	-231.974258	1264.287720	-246.293182	-366.120087	1020.692200	65.076904	-350.302856	1031.192871	-548.678162	-339.325882	807.988770	132.543995	-307.385117	804.839142	-585.613190	-220.463425	883.193481	-117.255730	-203.496094	874.112427	-343.571533	-402.804260	938.812683	-253.594711	-408.206421	1148.623413	-253.633469	-190.619873	1071.940552	-238.754105	-308.643555	537.512146	-58.160664	-326.722198	444.303864	-115.889618	-348.299377	260.814301	-75.054207	-361.063934	55.698463	-158.027161	-404.500916	52.381428	-205.999649	-226.442749	37.949047	-188.123230	-292.312164	536.036926	-428.565430	-318.871429	439.457367	-373.498962	-334.161713	259.633698	-436.577362	-358.642426	56.823784	-332.051056	-399.385651	46.620117	-283.590179	-233.242050	42.646004	-300.169128
209	2.08000000	-301.425568	1271.719238	-55.121159	-286.489197	1284.284912	-431.607483	-347.021271	1352.051880	-242.727921	-231.860916	1264.289307	-246.277710	-366.066742	1020.715210	65.148399	-350.469940	1031.157349	-548.621887	-339.184677	808.088226	132.695381	-307.614304	804.738861	-585.454651	-220.435547	883.200928	-117.260620	-203.400589	874.090454	-343.526184	-402.828949	938.820618	-253.551056	-408.201935	1148.620239	-253.631500	-190.627655	1071.941040	-238.754257	-308.649536	537.495239	-58.137321	-326.759430	444.328003	-115.838287	-348.390381	260.747070	-74.990852	-361.105469	55.728344	-157.987091	-404.428772	52.337589	-206.032852	-226.446381	37.920998	-188.120453	-292.332611	536.053406	-428.647858	-318.877594	439.488800	-373.450684	-334.172729	259.580750	-436.508911	-358.637238	56.825748	-332.044159	-399.392487	46.603123	-283.586945	-233.221527	42.643383	-300.200684
210	2.09000000	-301.372070	1271.727051	-55.087345	-286.516754	1284.279175	-431.627930	-347.005920	1352.044922	-242.721054	-231.817047	1264.343262	-246.289078	-365.941803	1020.768494	65.198502	-350.547241	1031.138916	-548.581055	-339.133759	808.152496	132.799191	-307.730103	804.679504	-585.328156	-220.457169	883.175232	-117.231262	-203.409424	874.038147	-343.530212	-402.806274	938.829163	-253.568527	-408.130035	1148.641113	-253.598740	-190.603088	1072.025269	-238.730103	-308.647644	537.491394	-58.141247	-326.726776	444.265778	-115.880257	-348.328217	260.763702	-75.031586	-361.062408	55.652977	-158.046234	-404.474792	52.318954	-206.029266	-226.447815	37.936893	-188.130966	-292.241455	536.038330	-428.492065	-318.871735	439.508148	-373.489746	-334.143311	259.634766	-436.552429	-358.639008	56.779095	-332.038971	-399.380188	46.603580	-283.601654	-233.213135	42.645794	-300.229004
